<svg id="visual" viewBox="0 0 540 960" width="540" height="960" xmlns="http://www.w3.org/2000/svg" xmlns:xlink="http://www.w3.org/1999/xlink" version="1.1"><rect x="0" y="0" width="540" height="960" fill="#EBD3AD"></rect><path d="M0 615L12.8 621.2C25.7 627.3 51.3 639.7 77 654C102.7 668.3 128.3 684.7 154 678.2C179.7 671.7 205.3 642.3 231.2 628C257 613.7 283 614.3 308.8 626.7C334.7 639 360.3 663 386 678.7C411.7 694.3 437.3 701.7 463 709.8C488.7 718 514.3 727 527.2 731.5L540 736L540 961L527.2 961C514.3 961 488.7 961 463 961C437.3 961 411.7 961 386 961C360.3 961 334.7 961 308.8 961C283 961 257 961 231.2 961C205.3 961 179.7 961 154 961C128.3 961 102.7 961 77 961C51.3 961 25.7 961 12.8 961L0 961Z" fill="#EFDCBE" stroke-linecap="round" stroke-linejoin="miter"></path></svg>